<?xml version="1.0" encoding="UTF-8" standalone="no"?>
<!-- Created with Inkscape (http://www.inkscape.org/) -->

<svg
   xmlns:dc="http://purl.org/dc/elements/1.1/"
   xmlns:cc="http://creativecommons.org/ns#"
   xmlns:rdf="http://www.w3.org/1999/02/22-rdf-syntax-ns#"
   xmlns:svg="http://www.w3.org/2000/svg"
   xmlns="http://www.w3.org/2000/svg"
   xmlns:sodipodi="http://sodipodi.sourceforge.net/DTD/sodipodi-0.dtd"
   xmlns:inkscape="http://www.inkscape.org/namespaces/inkscape"
   width="200"
   height="200"
   id="svg2"
   version="1.1"
   inkscape:version="0.48.4 r9939"
   sodipodi:docname="inventory-files.svg"
   inkscape:export-filename="inventory-files.png"
   inkscape:export-xdpi="128"
   inkscape:export-ydpi="128">
  <defs
     id="defs4" />
  <sodipodi:namedview
     id="base"
     pagecolor="#ffffff"
     bordercolor="#666666"
     borderopacity="1.0"
     inkscape:pageopacity="0.0"
     inkscape:pageshadow="2"
     inkscape:zoom="1.4"
     inkscape:cx="71.056809"
     inkscape:cy="97.489613"
     inkscape:document-units="px"
     inkscape:current-layer="layer1"
     showgrid="false"
     inkscape:window-width="1225"
     inkscape:window-height="1000"
     inkscape:window-x="1975"
     inkscape:window-y="24"
     inkscape:window-maximized="1" />
  <metadata
     id="metadata7">
    <rdf:RDF>
      <cc:Work
         rdf:about="">
        <dc:format>image/svg+xml</dc:format>
        <dc:type
           rdf:resource="http://purl.org/dc/dcmitype/StillImage" />
        <dc:title></dc:title>
      </cc:Work>
    </rdf:RDF>
  </metadata>
  <g
     inkscape:label="Layer 1"
     inkscape:groupmode="layer"
     id="layer1"
     transform="translate(0,-852.36218)">
    <path
       style="fill:#ffffff;stroke:#000000;stroke-width:5.08621024999999971px;stroke-linecap:butt;stroke-linejoin:miter;stroke-opacity:1;fill-opacity:1"
       d="m 121.4814,936.32178 c -0.70032,2.65033 -0.34997,99.82902 -0.34997,99.82902 l 36.06642,1.1779 -1.40065,-101.59588 c 0,0 28.71304,1.47244 30.46388,1.47244 1.75078,0 0.34997,-30.62601 0.34997,-30.62601 l -29.41337,-1.17793 31.86447,-5.30065 6.30292,-31.21501 -73.53348,1.7669 -7.7035,39.16598 -18.558443,5.59511 2.801294,32.68736 z"
       id="path3032-4"
       inkscape:connector-curvature="0" />
    <path
       style="fill:#ffffff;stroke:#000000;stroke-width:5.08621024999999971px;stroke-linecap:butt;stroke-linejoin:miter;stroke-opacity:1;fill-opacity:1"
       d="m 27.798262,1031.2713 32.683209,4.9976 -2.971176,-121.60603 -49.5199806,4.1646 z"
       id="path2988-3"
       inkscape:connector-curvature="0" />
    <path
       style="fill:#ffffff;stroke:#000000;stroke-width:5.08621024999999971px;stroke-linecap:butt;stroke-linejoin:miter;stroke-opacity:1;fill-opacity:1"
       d="m 10.961489,900.50329 47.539198,0.83291 0.990392,-32.48376 -47.539198,1.66582 z"
       id="path2990-6"
       inkscape:connector-curvature="0" />
    <path
       style="fill:#ffffff;stroke:#000000;stroke-width:4.42790031000000006px;stroke-linecap:butt;stroke-linejoin:miter;stroke-opacity:1;fill-opacity:1"
       d="m 70.528543,941.08894 c 0.908862,4.64329 0.908862,42.30572 0.908862,42.30572 l 30.446695,-21.6688 z"
       id="path3956"
       inkscape:connector-curvature="0" />
    <path
       style="fill:#900000;fill-opacity:1;stroke:none"
       d="m 31.921168,920.15197 0.904202,109.93593 c 0,0 19.440326,3.272 19.892423,1.3088 0.452068,-1.963 0,-111.24473 0,-111.24473 z"
       id="path2994-0"
       inkscape:connector-curvature="0" />
    <path
       style="fill:#900000;fill-opacity:1;stroke:none"
       d="m 19.907101,899.1591 0,-23.06085 31.369323,1.37677 0.653479,22.37246 z"
       id="path2992-0"
       inkscape:connector-curvature="0" />
    <path
       style="fill:#900000;fill-opacity:1;stroke:none"
       d="m 131.21175,1034.8847 18.36351,-6.3091 -0.93713,-99.74963 27.453,-7.66223 -22.5931,-6.65148 -1.08313,-21.09581 23.23283,-5.55637 -2.37939,-13.26256 -38.85632,8.71687 -3.00235,28.46154 -24.13099,6.3967 2.27285,15.11523 22.28473,-6.65291 -1.02146,11.32683 z"
       id="path3034-8"
       inkscape:connector-curvature="0"
       sodipodi:nodetypes="ccccccccccccccc" />
    <path
       style="fill:#900000;fill-opacity:1;stroke:none"
       d="m 74.380774,957.0581 c -0.06192,2.60273 -4.176922,22.83105 -4.176922,22.83105 l 17.288813,-7.99247 z"
       id="path3956-4"
       inkscape:connector-curvature="0" />
  </g>
</svg>
