<?xml version="1.0" encoding="UTF-8" standalone="no"?>
<!-- Created with Inkscape (http://www.inkscape.org/) -->

<svg
   xmlns:dc="http://purl.org/dc/elements/1.1/"
   xmlns:cc="http://creativecommons.org/ns#"
   xmlns:rdf="http://www.w3.org/1999/02/22-rdf-syntax-ns#"
   xmlns:svg="http://www.w3.org/2000/svg"
   xmlns="http://www.w3.org/2000/svg"
   xmlns:sodipodi="http://sodipodi.sourceforge.net/DTD/sodipodi-0.dtd"
   xmlns:inkscape="http://www.inkscape.org/namespaces/inkscape"
   width="300"
   height="300"
   id="svg2"
   version="1.1"
   inkscape:version="0.48.4 r9939"
   sodipodi:docname="logo.svg"
   inkscape:export-filename="logo.png"
   inkscape:export-xdpi="128"
   inkscape:export-ydpi="128">
  <defs
     id="defs4" />
  <sodipodi:namedview
     id="base"
     pagecolor="#ffffff"
     bordercolor="#666666"
     borderopacity="1.0"
     inkscape:pageopacity="0.0"
     inkscape:pageshadow="2"
     inkscape:zoom="2.8"
     inkscape:cx="127.20186"
     inkscape:cy="121.79652"
     inkscape:document-units="px"
     inkscape:current-layer="layer1"
     showgrid="false"
     inkscape:window-width="1301"
     inkscape:window-height="744"
     inkscape:window-x="65"
     inkscape:window-y="298"
     inkscape:window-maximized="1" />
  <metadata
     id="metadata7">
    <rdf:RDF>
      <cc:Work
         rdf:about="">
        <dc:format>image/svg+xml</dc:format>
        <dc:type
           rdf:resource="http://purl.org/dc/dcmitype/StillImage" />
        <dc:title />
      </cc:Work>
    </rdf:RDF>
  </metadata>
  <g
     inkscape:label="Layer 1"
     inkscape:groupmode="layer"
     id="layer1"
     transform="translate(0,-752.36218)">
    <path
       style="fill:none;stroke:#000000;stroke-width:1px;stroke-linecap:butt;stroke-linejoin:miter;stroke-opacity:1"
       d="m 15.4438,986.46465 5.892857,1.07143 -0.535714,-26.07143 -8.928571,0.89286 z"
       id="path2988"
       inkscape:connector-curvature="0" />
    <path
       style="fill:none;stroke:#000000;stroke-width:1px;stroke-linecap:butt;stroke-linejoin:miter;stroke-opacity:1"
       d="m 12.408086,958.42894 8.571428,0.17857 0.178572,-6.96428 -8.571429,0.35714 z"
       id="path2990"
       inkscape:connector-curvature="0" />
    <path
       style="fill:#000000;fill-opacity:1;stroke:#000000;stroke-width:1px;stroke-linecap:butt;stroke-linejoin:miter;stroke-opacity:1"
       d="m 15.983551,958.54187 0,-4.23001 3.030457,0.25254 0.06313,4.10374 z"
       id="path2992"
       inkscape:connector-curvature="0" />
    <path
       style="fill:#000000;fill-opacity:1;stroke:#000000;stroke-width:1px;stroke-linecap:butt;stroke-linejoin:miter;stroke-opacity:1"
       d="m 15.920416,963.21383 0.126269,21.2132 c 0,0 2.714785,0.63135 2.777919,0.25254 0.06313,-0.37881 0,-21.46574 0,-21.46574 z"
       id="path2994"
       inkscape:connector-curvature="0" />
    <path
       style="fill:none;stroke:#000000;stroke-width:1px;stroke-linecap:butt;stroke-linejoin:miter;stroke-opacity:1"
       d="m 22.428661,963.44163 0.401786,24.01786 4.6875,-0.17857 -0.679161,-17.40809 c 0.74394,-1.47684 1.753001,-2.19296 3.843227,-2.80747 1.642297,-0.16117 3.669365,0.80812 3.690038,3.46813 l -0.100113,16.39028 3.147435,-0.17485 c -0.309508,-6.00997 -1.142237,-17.66055 -1.686138,-19.16634 -0.529954,-2.05661 -2.554816,-3.33309 -4.298631,-2.96197 -1.596215,0.33199 -3.549523,1.07242 -4.589466,2.28149 l -0.398616,-6.0944 z"
       id="path2996"
       inkscape:connector-curvature="0"
       sodipodi:nodetypes="ccccccccccccc" />
    <path
       style="fill:none;stroke:#000000;stroke-width:0.90904784px;stroke-linecap:butt;stroke-linejoin:miter;stroke-opacity:1"
       d="m 34.373359,963.61029 c 4.420602,10.11612 1.445526,22.32906 10.860682,22.88253 l 6.339728,-22.81913 -3.221829,1.20433 c -2.405699,4.25917 -1.410012,15.80506 -6.131869,16.73404 L 38.010908,966.843 z"
       id="path2998"
       inkscape:connector-curvature="0"
       sodipodi:nodetypes="ccccccc" />
    <path
       style="fill:none;stroke:#000000;stroke-width:0.82972503px;stroke-linecap:butt;stroke-linejoin:miter;stroke-opacity:1"
       d="m 49.952408,975.45385 c 1.27815,12.62405 6.472497,12.61061 13.223773,10.175 l -0.09416,-4.25941 c -6.070183,3.39406 -9.383539,5.59725 -10.712649,-4.38967 l 10.826072,1.20756 c 0.171188,-7.2183 -0.533787,-16.29799 -6.148693,-15.28372 -3.467529,0.78201 -6.458759,2.88226 -7.266988,11.02432 l 2.934891,0.19074 c 0.763367,-3.58204 1.018779,-7.88559 4.750313,-8.39332 2.76042,-0.36777 3.114947,3.95187 3.406958,8.39332 z"
       id="path3000"
       inkscape:connector-curvature="0"
       sodipodi:nodetypes="ccccccccccc" />
    <path
       style="fill:none;stroke:#000000;stroke-width:1px;stroke-linecap:butt;stroke-linejoin:miter;stroke-opacity:1"
       d="m 82.427549,958.18736 -0.0523,7.485 -4.168229,3.69802 4.004935,-1.68986 0.728294,14.77008 c 0.20296,5.48249 12.345066,5.38186 10.885296,-1.14462 -2.701198,2.39344 -7.607114,4.57486 -7.525157,-1.82905 -0.05675,-3.73741 -0.05653,-8.75713 -0.263369,-12.64462 l 6.972803,-2.03114 c -0.534659,-1.53438 -0.676996,-2.72439 -0.141587,-4.49656 l -7.062099,4.26251 -0.152386,-6.9263 z"
       id="path3020"
       inkscape:connector-curvature="0"
       sodipodi:nodetypes="ccccccccccccc" />
    <path
       style="fill:none;stroke:#000000;stroke-width:1px;stroke-linecap:butt;stroke-linejoin:miter;stroke-opacity:1"
       d="m 98.006459,986.28223 8.396891,0.0631 c 6.73979,-10.12195 6.69499,-23.22424 -7.639271,-22.28649 l 1.07328,2.77792 c 10.775851,2.09916 7.894951,14.73208 1.698291,16.27339 -4.963011,-4.90951 -6.457471,-11.06782 -2.013961,-15.64204 l -1.32583,-3.15673 c -8.396177,5.01536 -3.79202,17.51882 -0.1894,21.97085 z"
       id="path3022"
       inkscape:connector-curvature="0"
       sodipodi:nodetypes="cccccccc" />
    <path
       style="fill:none;stroke:#000000;stroke-width:1px;stroke-linecap:butt;stroke-linejoin:miter;stroke-opacity:1"
       d="m 112.51054,962.78272 0.12627,21.97082 2.84105,3.4724 0.31568,-18.75096 c 1.62875,-1.81682 2.00213,-4.67195 4.23002,-3.53554 1.7759,0.66885 4.21543,-1.53525 4.60881,0.82075 l -1.26269,-4.54569 c -0.98082,1.36982 -2.15821,1.97128 -4.48255,1.32583 -2.44211,0.48799 -2.3496,1.53035 -3.40926,3.09359 z"
       id="path3024"
       inkscape:connector-curvature="0"
       sodipodi:nodetypes="cccccccccc" />
    <path
       style="fill:none;stroke:#000000;stroke-width:1px;stroke-linecap:butt;stroke-linejoin:miter;stroke-opacity:1"
       d="m 125.20629,960.81471 6.12405,16.28871 c 1.49377,3.94599 -0.22097,11.14326 -0.22097,11.14326 0.017,1.03472 -1.4972,2.89532 -3.3777,1.19955 l -0.82075,3.25143 c 2.00942,-0.16392 5.11926,-0.73665 5.93465,-3.66177 l 7.00794,-27.14784 -5.93465,14.20527 -5.55584,-12.94258 z"
       id="path3026"
       inkscape:connector-curvature="0"
       sodipodi:nodetypes="cccccccccc" />
    <path
       style="fill:none;stroke:#000000;stroke-width:1px;stroke-linecap:butt;stroke-linejoin:miter;stroke-opacity:1"
       d="m 89.59843,1006.4611 c -0.37881,-0.1894 -8.20749,-1.5784 -8.20749,-1.5784 l -7.134204,6.5029 0.25253,4.6719 12.311244,3.283 -0.0631,4.3563 -4.54568,1.5784 -8.333764,-2.4623 -0.18941,5.177 8.775704,1.7047 5.74525,-2.2097 1.13642,-10.7329 c 0,0 -10.79601,-2.5254 -10.85914,-2.9042 -0.0631,-0.3788 0.12627,-3.7249 0.12627,-3.7249 l 4.41942,-1.9572 6.43972,1.894 z"
       id="path3030"
       inkscape:connector-curvature="0" />
    <path
       style="fill:none;stroke:#000000;stroke-width:1px;stroke-linecap:butt;stroke-linejoin:miter;stroke-opacity:1"
       d="m 14.152656,1009.3021 c -0.12627,0.5682 -0.0631,21.4026 -0.0631,21.4026 l 6.50286,0.2526 -0.25254,-21.7815 c 0,0 5.17703,0.3157 5.49271,0.3157 0.31567,0 0.0631,-6.566 0.0631,-6.566 l -5.3033,-0.2525 5.74524,-1.1364 1.13643,-6.69238 -13.25826,0.3788 -1.38896,8.39698 -3.3461303,1.1996 0.50508,7.0079 z"
       id="path3032"
       inkscape:connector-curvature="0" />
    <path
       style="fill:#000000;fill-opacity:1;stroke:#000000;stroke-width:1px;stroke-linecap:butt;stroke-linejoin:miter;stroke-opacity:1"
       d="m 15.794156,1029.884 2.90418,-0.7576 -0.12626,-20.7082 5.93464,-1.2627 -5.4927,-0.8838 0.25254,-5.8716 5.6821,-0.3788 -0.50507,-2.84104 -7.76555,2.84104 -0.31567,5.9347 -4.10375,-0.6314 0,3.3462 3.283,-1.8309 0.69448,3.1567 z"
       id="path3034"
       inkscape:connector-curvature="0"
       sodipodi:nodetypes="ccccccccccccccc" />
    <path
       style="fill:none;stroke:#000000;stroke-width:1px;stroke-linecap:butt;stroke-linejoin:miter;stroke-opacity:1"
       d="m 29.431216,1006.0191 c -0.0631,0.2526 -0.25254,22.0971 -0.25254,22.0971 l 3.28299,0.2525 -0.25253,-16.8569 z"
       id="path3036"
       inkscape:connector-curvature="0" />
    <path
       style="fill:none;stroke:#000000;stroke-width:1px;stroke-linecap:butt;stroke-linejoin:miter;stroke-opacity:1"
       d="m 29.304946,998.12726 0.12627,3.34614 2.46224,-0.2525 0.0631,-3.09364 z"
       id="path3038"
       inkscape:connector-curvature="0" />
    <path
       style="fill:none;stroke:#000000;stroke-width:1px;stroke-linecap:butt;stroke-linejoin:miter;stroke-opacity:1"
       d="m 40.290356,997.81156 0.0631,29.42074 3.03046,-0.063 -0.31567,-26.8322 z"
       id="path3040"
       inkscape:connector-curvature="0" />
    <path
       style="fill:none;stroke:#000000;stroke-width:1px;stroke-linecap:butt;stroke-linejoin:miter;stroke-opacity:1"
       d="m 49.886806,1016.0259 0.75761,6.4398 9.02824,6.2503 9.28078,-2.2729 1.89403,-4.1668 -10.73287,3.4092 -5.93464,-4.0406 -0.75762,-4.1037 16.66752,1.1364 -8.39689,-15.7836 -12.0587,11.6167 4.29315,0.1894 4.67195,-5.7452 7.26048,5.7452 z"
       id="path3000-8"
       inkscape:connector-curvature="0" />
    <path
       style="fill:none;stroke:#000000;stroke-width:5.08621025px;stroke-linecap:butt;stroke-linejoin:miter;stroke-opacity:1"
       d="m 125.05283,829.89321 c -0.70032,2.65033 -0.34997,99.82903 -0.34997,99.82903 l 36.06642,1.17793 -1.40065,-101.59592 c 0,0 28.71304,1.47244 30.46388,1.47244 1.75078,0 0.34997,-30.62601 0.34997,-30.62601 l -29.41337,-1.17793 31.86447,-5.30065 6.30292,-31.21501 -73.53348,1.7669 -7.7035,39.16598 -18.558444,5.59511 2.801294,32.68736 z"
       id="path3032-4"
       inkscape:connector-curvature="0" />
    <path
       style="fill:none;stroke:#000000;stroke-width:5.08621025px;stroke-linecap:butt;stroke-linejoin:miter;stroke-opacity:1"
       d="M 31.369691,924.84276 64.0529,929.84028 61.081724,808.2343 11.561743,812.3989 z"
       id="path2988-3"
       inkscape:connector-curvature="0" />
    <path
       style="fill:none;stroke:#000000;stroke-width:5.08621025px;stroke-linecap:butt;stroke-linejoin:miter;stroke-opacity:1"
       d="m 14.532918,794.07472 47.539198,0.83291 0.990392,-32.48376 -47.539198,1.66582 z"
       id="path2990-6"
       inkscape:connector-curvature="0" />
    <path
       style="fill:none;stroke:#000000;stroke-width:4.42790031px;stroke-linecap:butt;stroke-linejoin:miter;stroke-opacity:1"
       d="m 74.099972,834.66037 c 0.908862,4.64329 0.908862,42.30572 0.908862,42.30572 l 30.446696,-21.6688 z"
       id="path3956"
       inkscape:connector-curvature="0" />
    <path
       style="fill:#000000;fill-opacity:1;stroke:#000000;stroke-width:5.3700304px;stroke-linecap:butt;stroke-linejoin:miter;stroke-opacity:1"
       d="m 35.04666,817.44778 0.753193,102.55357 c 0,0 16.193637,3.05221 16.57023,1.22088 0.376569,-1.83133 0,-103.77445 0,-103.77445 z"
       id="path2994-0"
       inkscape:connector-curvature="0" />
    <path
       style="fill:#000000;fill-opacity:1;stroke:#000000;stroke-width:5.36864758px;stroke-linecap:butt;stroke-linejoin:miter;stroke-opacity:1"
       d="m 32.822441,791.9199 0,-18.71469 19.742243,1.1173 0.411267,18.15604 z"
       id="path2992-0"
       inkscape:connector-curvature="0" />
    <path
       style="fill:#000000;fill-opacity:1;stroke:#000000;stroke-width:4.62158871px;stroke-linecap:butt;stroke-linejoin:miter;stroke-opacity:1"
       d="m 134.78318,926.18336 15.58559,-3.42964 -1.18967,-99.08757 27.95808,-5.72489 -25.8761,-4.0074 1.18972,-26.62076 26.76836,-1.71743 -2.37939,-12.88103 -36.58348,12.88103 -1.48712,26.90694 -19.33276,-2.86242 0,15.17095 15.46621,-8.30108 3.27168,14.31218 z"
       id="path3034-8"
       inkscape:connector-curvature="0"
       sodipodi:nodetypes="ccccccccccccccc" />
    <path
       style="fill:none;stroke:#000000;stroke-width:1px;stroke-linecap:butt;stroke-linejoin:miter;stroke-opacity:1"
       d="m 64.435796,962.41513 0.401786,24.0179 4.6875,-0.1786 -0.679161,-17.4081 c -0.104274,-1.4322 1.440501,-2.05903 3.307513,-2.49497 1.865511,-0.25046 3.312222,0.67419 3.332895,3.3342 l 0.792744,16.21167 3.147435,-0.1748 C 79.117,979.71245 78.284271,968.06187 77.74037,966.55608 c -0.529954,-2.05661 -2.15303,-2.9313 -4.298631,-2.96197 -1.730144,0.0195 -3.906666,0.44742 -4.946609,1.65649 l -0.04147,-5.4694 z"
       id="path2996-0"
       inkscape:connector-curvature="0"
       sodipodi:nodetypes="ccccccccccccc" />
  </g>
</svg>
