<?xml version="1.0" encoding="UTF-8" standalone="no"?>
<!-- Created with Inkscape (http://www.inkscape.org/) -->

<svg
   xmlns:dc="http://purl.org/dc/elements/1.1/"
   xmlns:cc="http://creativecommons.org/ns#"
   xmlns:rdf="http://www.w3.org/1999/02/22-rdf-syntax-ns#"
   xmlns:svg="http://www.w3.org/2000/svg"
   xmlns="http://www.w3.org/2000/svg"
   xmlns:sodipodi="http://sodipodi.sourceforge.net/DTD/sodipodi-0.dtd"
   xmlns:inkscape="http://www.inkscape.org/namespaces/inkscape"
   width="300"
   height="300"
   id="svg2"
   version="1.1"
   inkscape:version="0.48.4 r9939"
   sodipodi:docname="logo.svg"
   inkscape:export-filename="logo.png"
   inkscape:export-xdpi="128"
   inkscape:export-ydpi="128">
  <defs
     id="defs4" />
  <sodipodi:namedview
     id="base"
     pagecolor="#ffffff"
     bordercolor="#666666"
     borderopacity="1.0"
     inkscape:pageopacity="0.0"
     inkscape:pageshadow="2"
     inkscape:zoom="0.98994949"
     inkscape:cx="566.46756"
     inkscape:cy="25.707415"
     inkscape:document-units="px"
     inkscape:current-layer="layer1"
     showgrid="false"
     inkscape:window-width="1865"
     inkscape:window-height="1056"
     inkscape:window-x="55"
     inkscape:window-y="24"
     inkscape:window-maximized="1" />
  <metadata
     id="metadata7">
    <rdf:RDF>
      <cc:Work
         rdf:about="">
        <dc:format>image/svg+xml</dc:format>
        <dc:type
           rdf:resource="http://purl.org/dc/dcmitype/StillImage" />
        <dc:title></dc:title>
      </cc:Work>
    </rdf:RDF>
  </metadata>
  <g
     inkscape:label="Layer 1"
     inkscape:groupmode="layer"
     id="layer1"
     transform="translate(0,-752.36218)">
    <g
       id="g3932"
       transform="translate(6.0714286,-58.928572)">
      <g
         transform="translate(0,-0.35714286)"
         id="g3896">
        <path
           style="fill:none;stroke:#000000;stroke-width:1px;stroke-linecap:butt;stroke-linejoin:miter;stroke-opacity:1"
           d="M 7.8571429,854.32646 13.75,855.39789 13.214286,829.32646 4.2857143,830.21932 z"
           id="path2988"
           inkscape:connector-curvature="0" />
        <path
           style="fill:none;stroke:#000000;stroke-width:1px;stroke-linecap:butt;stroke-linejoin:miter;stroke-opacity:1"
           d="m 4.8214286,826.29075 8.5714284,0.17857 0.178572,-6.96428 L 5,819.86218 z"
           id="path2990"
           inkscape:connector-curvature="0" />
        <path
           style="fill:#000000;fill-opacity:1;stroke:#000000;stroke-width:1px;stroke-linecap:butt;stroke-linejoin:miter;stroke-opacity:1"
           d="m 8.3968931,826.40368 0,-4.23001 3.0304579,0.25254 0.06313,4.10374 z"
           id="path2992"
           inkscape:connector-curvature="0" />
        <path
           style="fill:#000000;fill-opacity:1;stroke:#000000;stroke-width:1px;stroke-linecap:butt;stroke-linejoin:miter;stroke-opacity:1"
           d="m 8.3337585,831.07564 0.1262691,21.2132 c 0,0 2.7147854,0.63135 2.7779194,0.25254 0.06313,-0.37881 0,-21.46574 0,-21.46574 z"
           id="path2994"
           inkscape:connector-curvature="0" />
      </g>
      <path
         sodipodi:nodetypes="ccccccccccccc"
         inkscape:connector-curvature="0"
         id="path2996"
         d="m 18.125,829.68361 0.401786,24.01786 4.6875,-0.17857 -0.679161,-17.40809 6.747416,-4.5121 4.637056,5.4253 -0.542055,15.56953 3.399973,-0.42739 -0.928524,-18.02992 -6.508339,-4.09839 -6.483502,3.48105 -0.714289,-6.47321 z"
         style="fill:none;stroke:#000000;stroke-width:1px;stroke-linecap:butt;stroke-linejoin:miter;stroke-opacity:1" />
      <path
         inkscape:connector-curvature="0"
         id="path2998"
         d="m 42.237004,830.52909 8.207489,21.52888 4.987628,1.26269 7.702413,-22.72843 -3.914341,1.19955 -5.492704,16.35185 -1.957171,0.31567 -5.113897,-14.71035 z"
         style="fill:none;stroke:#000000;stroke-width:1px;stroke-linecap:butt;stroke-linejoin:miter;stroke-opacity:1" />
      <path
         inkscape:connector-curvature="0"
         id="path3000"
         d="m 66.922606,840.37808 0.757615,6.43972 9.028238,6.25032 9.280777,-2.27284 1.894036,-4.16688 -10.732871,3.40926 -5.934646,-4.04061 -0.757615,-4.10374 16.667517,1.13642 -8.396893,-15.78363 -12.058696,11.61675 4.293149,0.1894 4.671955,-5.74524 7.260472,5.74524 z"
         style="fill:none;stroke:#000000;stroke-width:1px;stroke-linecap:butt;stroke-linejoin:miter;stroke-opacity:1" />
      <path
         sodipodi:nodetypes="ccccccccccccc"
         inkscape:connector-curvature="0"
         id="path2996-5"
         d="m 92.194074,830.00179 0.401786,24.01786 4.6875,-0.17857 -0.679161,-17.40809 6.747411,-4.5121 4.63706,5.42531 -0.54205,15.56952 3.39997,-0.42739 -0.92853,-18.02992 -6.50833,-4.09839 -6.483506,3.48105 -0.714289,-6.47321 z"
         style="fill:none;stroke:#000000;stroke-width:1px;stroke-linecap:butt;stroke-linejoin:miter;stroke-opacity:1" />
      <path
         inkscape:connector-curvature="0"
         id="path3020"
         d="m 118.12471,824.1525 0.12627,6.50286 -3.4724,-1.26269 0.0631,7.63928 3.15672,-3.78807 0.50508,18.87722 10.92228,0.25254 -0.12627,-3.09359 -6.9448,-0.75762 -0.44194,-15.27855 7.95495,-2.20971 0.12627,-4.98763 -7.95496,4.79822 -0.0631,-6.88166 z"
         style="fill:none;stroke:#000000;stroke-width:1px;stroke-linecap:butt;stroke-linejoin:miter;stroke-opacity:1" />
      <path
         inkscape:connector-curvature="0"
         id="path3022"
         d="m 136.24433,831.85492 -3.85121,7.76554 0.94702,7.19734 4.79822,5.80838 8.39689,0.0631 4.54569,-4.79822 1.8309,-6.37659 -2.08344,-7.1342 -5.17703,-4.41942 -6.75539,0.44194 1.07328,2.77792 4.23002,-0.12627 4.10374,3.91434 0.50508,7.51301 -2.39911,4.04061 -5.36644,1.19956 -3.40927,-2.52538 -1.32582,-6.31346 1.19956,-4.86135 2.14657,-2.20971 -1.32583,-3.15673 z"
         style="fill:none;stroke:#000000;stroke-width:1px;stroke-linecap:butt;stroke-linejoin:miter;stroke-opacity:1" />
      <path
         inkscape:connector-curvature="0"
         id="path3024"
         d="m 158.08887,830.46596 0.12627,21.97082 4.16688,3.53553 -0.50507,-6.31346 0.44194,-13.63705 4.98763,-3.21987 3.72493,3.53554 0,-6.31346 -3.97747,1.51523 -5.05076,3.40927 z"
         style="fill:none;stroke:#000000;stroke-width:1px;stroke-linecap:butt;stroke-linejoin:miter;stroke-opacity:1" />
      <path
         inkscape:connector-curvature="0"
         id="path3026"
         d="m 172.42041,830.40282 8.64943,21.71828 -2.65165,5.17704 -4.04061,0.31567 -0.12627,2.90419 5.68211,-0.0631 13.7002,-29.9889 -10.6066,16.98319 -7.95496,-19.63484 z"
         style="fill:none;stroke:#000000;stroke-width:1px;stroke-linecap:butt;stroke-linejoin:miter;stroke-opacity:1" />
      <path
         inkscape:connector-curvature="0"
         id="path3028"
         d="m 196.07143,839.72825 0.0893,2.99107 10.98214,-0.0446 z"
         style="fill:none;stroke:#000000;stroke-width:1px;stroke-linecap:butt;stroke-linejoin:miter;stroke-opacity:1" />
      <path
         inkscape:connector-curvature="0"
         id="path3030"
         d="m 287.199,831.03417 c -0.37881,-0.18941 -8.20749,-1.57837 -8.20749,-1.57837 l -7.1342,6.50286 0.25253,4.67196 12.31124,3.28299 -0.0631,4.35628 -4.54568,1.57837 -8.33376,-2.46225 -0.18941,5.17704 8.7757,1.70463 5.74525,-2.20971 1.13642,-10.73287 c 0,0 -10.79601,-2.52539 -10.85914,-2.90419 -0.0631,-0.37881 0.12627,-3.72494 0.12627,-3.72494 l 4.41942,-1.95717 6.43972,1.89404 z"
         style="fill:none;stroke:#000000;stroke-width:1px;stroke-linecap:butt;stroke-linejoin:miter;stroke-opacity:1" />
      <g
         transform="translate(0,-0.35714286)"
         id="g3868">
        <path
           style="fill:none;stroke:#000000;stroke-width:1px;stroke-linecap:butt;stroke-linejoin:miter;stroke-opacity:1"
           d="m 211.75323,81.870184 c -0.12627,0.56821 -0.0631,21.402606 -0.0631,21.402606 l 6.50286,0.25254 -0.25254,-21.781415 c 0,0 5.17703,0.315672 5.49271,0.315672 0.31567,0 0.0631,-6.565991 0.0631,-6.565991 l -5.3033,-0.252538 5.74524,-1.136422 1.13643,-6.692261 -13.25826,0.378807 -1.38896,8.396894 -3.34613,1.199556 0.50508,7.007933 z"
           id="path3032"
           inkscape:connector-curvature="0"
           transform="translate(0,752.36218)" />
        <path
           style="fill:#000000;fill-opacity:1;stroke:#000000;stroke-width:1px;stroke-linecap:butt;stroke-linejoin:miter;stroke-opacity:1"
           d="m 213.26846,100.05293 3.15672,-0.12627 -0.25253,-18.94036 5.93464,-1.262691 -5.4927,-0.883883 0.25254,-5.871512 5.6821,-0.378807 -0.50507,-2.841054 -7.76555,2.841054 -0.31567,5.934646 -4.10375,-0.631345 0,3.34613 3.283,-1.830901 0.69448,3.156727 z"
           id="path3034"
           inkscape:connector-curvature="0"
           transform="translate(0,752.36218)" />
      </g>
      <path
         inkscape:connector-curvature="0"
         id="path3036"
         d="m 227.03179,830.59223 c -0.0631,0.25253 -0.25254,22.09708 -0.25254,22.09708 l 3.28299,0.25254 -0.25253,-16.85692 z"
         style="fill:none;stroke:#000000;stroke-width:1px;stroke-linecap:butt;stroke-linejoin:miter;stroke-opacity:1" />
      <path
         inkscape:connector-curvature="0"
         id="path3038"
         d="m 226.90552,822.70041 0.12627,3.34613 2.46224,-0.25254 0.0631,-3.09359 z"
         style="fill:none;stroke:#000000;stroke-width:1px;stroke-linecap:butt;stroke-linejoin:miter;stroke-opacity:1" />
      <path
         inkscape:connector-curvature="0"
         id="path3040"
         d="m 237.89093,822.38474 0.0631,29.42069 3.03046,-0.0631 -0.31567,-26.83218 z"
         style="fill:none;stroke:#000000;stroke-width:1px;stroke-linecap:butt;stroke-linejoin:miter;stroke-opacity:1" />
      <path
         inkscape:connector-curvature="0"
         id="path3000-8"
         d="m 247.48738,840.59905 0.75761,6.43973 9.02824,6.25031 9.28078,-2.27284 1.89403,-4.16688 -10.73287,3.40927 -5.93464,-4.04061 -0.75762,-4.10375 16.66752,1.13642 -8.39689,-15.78363 -12.0587,11.61675 4.29315,0.18941 4.67195,-5.74524 7.26048,5.74524 z"
         style="fill:none;stroke:#000000;stroke-width:1px;stroke-linecap:butt;stroke-linejoin:miter;stroke-opacity:1" />
    </g>
    <g
       id="g3964"
       transform="matrix(5.5462388,0,0,4.6643387,-537.77853,-3058.4076)">
      <path
         inkscape:connector-curvature="0"
         id="path3032-4"
         d="m 132.90742,849.52244 c -0.12627,0.56821 -0.0631,21.40261 -0.0631,21.40261 l 6.50286,0.25254 -0.25254,-21.78142 c 0,0 5.17703,0.31568 5.49271,0.31568 0.31567,0 0.0631,-6.56599 0.0631,-6.56599 l -5.3033,-0.25254 5.74524,-1.13642 1.13643,-6.69227 -13.25826,0.37881 -1.38896,8.3969 -3.34613,1.19955 0.50508,7.00793 z"
         style="fill:none;stroke:#000000;stroke-width:1px;stroke-linecap:butt;stroke-linejoin:miter;stroke-opacity:1" />
      <path
         inkscape:connector-curvature="0"
         id="path2988-3"
         d="m 106.80783,869.57265 5.89286,1.07143 -0.53571,-26.07143 -8.92857,0.89286 z"
         style="fill:none;stroke:#000000;stroke-width:1px;stroke-linecap:butt;stroke-linejoin:miter;stroke-opacity:1" />
      <path
         inkscape:connector-curvature="0"
         id="path2990-6"
         d="m 103.77212,841.53694 8.57143,0.17857 0.17857,-6.96428 -8.57143,0.35714 z"
         style="fill:none;stroke:#000000;stroke-width:1px;stroke-linecap:butt;stroke-linejoin:miter;stroke-opacity:1" />
      <path
         transform="translate(0,752.36218)"
         inkscape:connector-curvature="0"
         id="path3956"
         d="m 115.47306,101.31562 c 0.37881,0.56821 0.37881,5.17703 0.37881,5.17703 l 12.69004,-2.65165 z"
         style="fill:none;stroke:#000000;stroke-width:1px;stroke-linecap:butt;stroke-linejoin:miter;stroke-opacity:1" />
    </g>
  </g>
</svg>
